<svg class="svg-logo-kenny-tran" xmlns="http://www.w3.org/2000/svg" width="129.23" height="18.71"><path d="M3.21 18.71H0V0h3.21v6.92h.06L6.63 0h3.22L6.38 6.97l3.91 11.74H7.02L4.41 10h-.06l-1.14 2.08v6.63zm19.9 0h-8.97V0h8.6v2.8h-5.39v4.82h4.15v2.8h-4.15v5.49h5.76v2.8zm6.75 0h-2.91V0h2.98l3.92 10.7h.05V0h2.9v18.71H34L29.91 7.02h-.05v11.69zm13.69 0h-2.9V0h2.98l3.91 10.7h.05V0h2.9v18.71H47.7L43.6 7.02h-.05v11.69zm17.89-7.77v7.77h-3.21v-7.77L54.34 0h3.26l2.26 7.13h.05L62.06 0h3.27l-3.89 10.94zm19.31 7.77V2.8h-3.11V0h9.43v2.8h-3.11v15.91h-3.21zM95.43 0c3.6 0 5.44 1.53 5.44 5.52 0 3-1.17 4.22-2.26 4.72l2.72 8.47h-3.26L95.79 11a16 16 0 01-1.66.08v7.67h-3.21V0zm-.16 2.64h-1.14V8.4h1.14c1.74 0 2.38-.65 2.38-2.88S97 2.64 95.27 2.64zM112.2 0l3.45 18.71h-3.11l-.54-4.14h-3.53l-.57 4.14h-3.11L108.21 0zm-2 3.73l-1.27 8h2.59zm12.08 14.98h-2.9V0h2.98l3.91 10.7h.05V0h2.91v18.71h-2.8l-4.1-11.69h-.05v11.69z"/></svg>