<svg xmlns="http://www.w3.org/2000/svg" width="63.71" height="17.64"><path d="M19.6 17.61V9.67q.03-5.76-5.74-5.76a6.46 6.46 0 00-4 1.1 6.3 6.3 0 00-4-1.15C1.94 3.85 0 5.77 0 9.62v7.94h3.45V8.91c0-1.4.79-2.09 2.29-2.09s2.27.71 2.35 2.09v8.63h3.42V8.98c0-1.4.79-2.09 2.3-2.09s2.27.69 2.34 2.09v6.61a2 2 0 002 2zm6.11-2.83a2.82 2.82 0 003.07-3.07v-1.27a14.75 14.75 0 01-2.74.83c-1.37.26-2.06.9-2.06 1.91a1.52 1.52 0 001.73 1.6m.8-8.53c-1.22 0-1.89.31-2.07 1h-3.41c.41-2.53 2.19-3.77 5.34-3.77 3.77 0 5.68 1.24 5.76 3.77v4.66c0 3.77-2.27 5.45-6 5.71-3.28.26-5.55-1.26-5.55-4.29.07-3.28 2.45-4.16 5.91-4.49 1.51-.24 2.22-.67 2.22-1.42s-.8-1.17-2.22-1.17m12.98 8.46c-2 0-2.89-1.38-2.86-4.12s1.1-3.89 2.91-3.89 2.81 1.28 2.88 3.89-1 4.12-2.93 4.12zM33.18 0v11.54c0 4.06 2.14 6.09 6.39 6.06s6.34-2.35 6.34-6.86-1.81-7-5.44-7.09a4.26 4.26 0 00-3.86 2.1V2.02a2 2 0 00-2-2zm13.75.03v15.58a2 2 0 002 2h1.41V2.05a2 2 0 00-2-2zm8.03 8.98c.26-1.8 1.13-2.73 2.6-2.73s2.31.93 2.51 2.73zm2.65-5.54q-5.4 0-6.11 5.29a8 8 0 00-.08.87 1.7 1.7 0 000 .22 2.18 2.18 0 000 .25v.81q.16 6.75 6.1 6.74h1.09c.29 0 .57-.09.83-.15l.39-.1a4.41 4.41 0 00.74-.3 3.84 3.84 0 00.49-.27 5.12 5.12 0 002.19-2.92v-.06c0-.11.07-.22.1-.33v-.05c0-.11.07-.23.1-.35h-3.59a2.51 2.51 0 01-2.07 1.46h-.75l-.23-.05h-.06l-.19-.06-.2-.1-.15-.1h-.05l-.17-.14a.8.8 0 01-.13-.13.86.86 0 01-.14-.18 1.74 1.74 0 01-.11-.18v-.06a1.63 1.63 0 01-.11-.23 5.4 5.4 0 01-.3-1.64h8.51c.26-5.35-1.77-8-6.08-8z" fill="#52cea2" fill-rule="evenodd"/></svg>