<?xml version="1.0" standalone="no"?>
<!DOCTYPE svg PUBLIC "-//W3C//DTD SVG 20010904//EN"
 "http://www.w3.org/TR/2001/REC-SVG-20010904/DTD/svg10.dtd">
<svg version="1.0" xmlns="http://www.w3.org/2000/svg"
 width="1800.000000pt" height="1800.000000pt" viewBox="0 0 1800.000000 1800.000000"
 preserveAspectRatio="xMidYMid meet">
<metadata>
Created by potrace 1.11, written by Peter Selinger 2001-2013
</metadata>
<g transform="translate(0.000000,1800.000000) scale(0.100000,-0.100000)"
fill="#000000" stroke="none">
<path d="M0 9000 l0 -9000 9000 0 9000 0 0 9000 0 9000 -9000 0 -9000 0 0
-9000z m3970 3045 c0 -1491 2 -1785 13 -1785 9 0 366 723 883 1785 l869 1785
827 0 c456 0 828 -2 828 -6 0 -3 -402 -813 -894 -1800 l-894 -1795 1009 -3027
c555 -1665 1009 -3028 1009 -3029 0 -2 -380 -3 -843 -3 l-844 0 -441 1468
c-242 807 -546 1817 -674 2244 -174 582 -237 778 -248 778 -9 0 -123 -198
-307 -533 l-293 -533 0 -1712 0 -1712 -830 0 -830 0 0 4830 0 4830 830 0 830
0 0 -1785z m11490 1060 l0 -725 -805 0 -805 0 0 -4105 0 -4105 -830 0 -830 0
0 4105 0 4105 -800 0 -800 0 0 725 0 725 2435 0 2435 0 0 -725z m-4870 -8145
l0 -780 -795 0 -795 0 0 780 0 780 795 0 795 0 0 -780z"/>
</g>
</svg>
