<svg class="svg-logo-kenny-tran" xmlns="http://www.w3.org/2000/svg" width="129.23" height="18.71" viewBox="0 0 129.23 18.71">
  <title>Kenny Tran</title>
  <polygon points="3.21 18.71 0 18.71 0 0 3.21 0 3.21 6.92 3.27 6.92 6.63 0 9.85 0 6.38 6.97 10.29 18.71 7.02 18.71 4.41 10 4.35 10 3.21 12.08 3.21 18.71"/>
  <polygon points="23.11 18.71 14.14 18.71 14.14 0 22.74 0 22.74 2.8 17.35 2.8 17.35 7.62 21.5 7.62 21.5 10.42 17.35 10.42 17.35 15.91 23.11 15.91 23.11 18.71"/>
  <polygon points="29.86 18.71 26.95 18.71 26.95 0 29.93 0 33.85 10.7 33.9 10.7 33.9 0 36.8 0 36.8 18.71 34 18.71 29.91 7.02 29.86 7.02 29.86 18.71"/>
  <polygon points="43.55 18.71 40.65 18.71 40.65 0 43.63 0 47.54 10.7 47.59 10.7 47.59 0 50.49 0 50.49 18.71 47.7 18.71 43.6 7.02 43.55 7.02 43.55 18.71"/>
  <polygon points="61.44 10.94 61.44 18.71 58.23 18.71 58.23 10.94 54.34 0 57.6 0 59.86 7.13 59.91 7.13 62.06 0 65.33 0 61.44 10.94"/>
  <polygon points="80.75 18.71 80.75 2.8 77.64 2.8 77.64 0 87.07 0 87.07 2.8 83.96 2.8 83.96 18.71 80.75 18.71"/>
  <path d="M95.43,0c3.6,0,5.44,1.53,5.44,5.52,0,3-1.17,4.22-2.26,4.72l2.72,8.47H98.07L95.79,11a16,16,0,0,1-1.66.08v7.67H90.92V0Zm-.16,2.64H94.13V8.4h1.14c1.74,0,2.38-.65,2.38-2.88S97,2.64,95.27,2.64Z"/>
  <path d="M112.2,0l3.45,18.71h-3.11L112,14.57h-3.53l-.57,4.14h-3.11L108.21,0Zm-2,3.73h0l-1.27,8h2.59Z"/>
  <polygon points="122.28 18.71 119.38 18.71 119.38 0 122.36 0 126.27 10.7 126.32 10.7 126.32 0 129.23 0 129.23 18.71 126.43 18.71 122.33 7.02 122.28 7.02 122.28 18.71"/>
</svg>
