<svg xmlns="http://www.w3.org/2000/svg" width="63.71" height="17.64" viewBox="0 0 63.71 17.64">
  <defs>
    <style>
      .a {
        fill: #52cea2;
        fill-rule: evenodd;
      }
    </style>
  </defs>
  <title>logo-mable</title>
  <g>
    <path class="a" d="M19.89,17.7V9.76Q19.92,4,14.15,4a6.46,6.46,0,0,0-4,1.1,6.3,6.3,0,0,0-4-1.15C2.23,3.94.29,5.86.29,9.71v7.94H3.74V9c0-1.4.79-2.09,2.29-2.09S8.3,7.62,8.38,9v8.63H11.8V9.07c0-1.4.79-2.09,2.3-2.09s2.27.69,2.34,2.09v6.61a2,2,0,0,0,2,2Z" transform="translate(-0.29 -0.09)"/>
    <path class="a" d="M26,14.87a2.82,2.82,0,0,0,3.07-3.07V10.53a14.75,14.75,0,0,1-2.74.83c-1.37.26-2.06.9-2.06,1.91A1.52,1.52,0,0,0,26,14.87m.8-8.53c-1.22,0-1.89.31-2.07,1H21.32c.41-2.53,2.19-3.77,5.34-3.77,3.77,0,5.68,1.24,5.76,3.77V12c0,3.77-2.27,5.45-6,5.71-3.28.26-5.55-1.26-5.55-4.29.07-3.28,2.45-4.16,5.91-4.49C28.29,8.69,29,8.26,29,7.51s-.8-1.17-2.22-1.17" transform="translate(-0.29 -0.09)"/>
    <path class="a" d="M39.76,14.8c-2,0-2.89-1.38-2.86-4.12S38,6.79,39.81,6.79s2.81,1.28,2.88,3.89-1,4.12-2.93,4.12ZM33.47.09V11.63c0,4.06,2.14,6.09,6.39,6.06s6.34-2.35,6.34-6.86-1.81-7-5.44-7.09a4.26,4.26,0,0,0-3.86,2.1V2.11a2,2,0,0,0-2-2Z" transform="translate(-0.29 -0.09)"/>
    <path class="a" d="M47.22.12V15.7a2,2,0,0,0,2,2h1.41V2.14a2,2,0,0,0-2-2Z" transform="translate(-0.29 -0.09)"/>
    <path class="a" d="M55.25,9.1c.26-1.8,1.13-2.73,2.6-2.73s2.31.93,2.51,2.73ZM57.9,3.56q-5.4,0-6.11,5.29h0a8,8,0,0,0-.08.87h0a1.7,1.7,0,0,0,0,.22h0a2.18,2.18,0,0,0,0,.25h0v.06c0,.1,0,.2,0,.3v.07c0,.05,0,.11,0,.17V11q.16,6.75,6.1,6.74h.6l.42,0h.07c.29,0,.57-.09.83-.15h0l.39-.1h0a4.41,4.41,0,0,0,.74-.3h0a3.84,3.84,0,0,0,.49-.27A5.12,5.12,0,0,0,63.54,14l0-.06h0c0-.11.07-.22.1-.33l0-.05c0-.11.07-.23.1-.35H60.15a2.51,2.51,0,0,1-2.07,1.46h-.52l-.23,0h0l-.23-.05-.06,0-.19-.06,0,0-.2-.1,0,0-.15-.1-.05,0-.17-.14,0,0a.8.8,0,0,1-.13-.13l0,0a.86.86,0,0,1-.14-.18l0,0a1.74,1.74,0,0,1-.11-.18l0-.06a1.63,1.63,0,0,1-.11-.23h0a5.4,5.4,0,0,1-.3-1.64H64c.26-5.35-1.77-8-6.08-8Z" transform="translate(-0.29 -0.09)"/>
  </g>
</svg>
